<svg xmlns:xlink="http://www.w3.org/1999/xlink" xmlns="http://www.w3.org/2000/svg" width="428.99285888671875" height="84.75224773127859" viewBox="0 0 410 81" class="looka-1j8o68f"><defs id="SvgjsDefs4742"></defs><g id="SvgjsG4743" featurekey="symbolContainer" transform="matrix(1,0,0,1,0,0)" fill="#FD7014">    <rect width="110" height="81" fill="#FD7014"></rect></g><g id="SvgjsG4744" featurekey="symbolFeature-0" transform="matrix(1.6081086883937121,0,0,1.6081086883937121,-18.175978466335458,-31.241535119275568)" fill="#FFFFFF"><title xmlns="http://www.w3.org/2000/svg">Artboard 1</title><desc xmlns="http://www.w3.org/2000/svg" fill="#FFFFFF">Created with Sketch.</desc><g xmlns="http://www.w3.org/2000/svg" stroke="none" stroke-width="1" fill="none" fill-rule="evenodd" xmlns:sketch="http://www.bohemiancoding.com/sketch/ns" sketch:type="MSPage"><g sketch:type="MSArtboardGroup" fill="#FFFFFF"><path d="M57.6546315,55.1284154 C58.0451558,55.5189397 58.6783208,55.5189397 59.0688451,55.1284154 C59.4593694,54.7378911 59.4593694,54.1047261 59.0688451,53.7142019 L57.5830833,52.2284401 C57.1925591,51.8379158 56.5593941,51.8379158 56.1688698,52.2284401 C55.7783455,52.6189644 55.7783455,53.2521294 56.1688698,53.6426537 L57.6546315,55.1284154 Z M63.0499391,54.523723 C63.4404634,54.9142472 64.0736284,54.9142472 64.4641526,54.523723 C64.8546769,54.1331987 64.8546769,53.5000337 64.4641526,53.1095094 L59.5830833,48.2284401 C59.1925591,47.8379158 58.5593941,47.8379158 58.1688698,48.2284401 C57.7783455,48.6189644 57.7783455,49.2521294 58.1688698,49.6426537 L63.0499391,54.523723 Z M61.805658,47.2794419 C62.1961823,47.6699662 62.8293473,47.6699662 63.2198716,47.2794419 C63.6103959,46.8889176 63.6103959,46.2557526 63.2198716,45.8652283 L60.5830833,43.2284401 C60.1925591,42.8379158 59.5593941,42.8379158 59.1688698,43.2284401 C58.7783455,43.6189644 58.7783455,44.2521294 59.1688698,44.6426537 L61.805658,47.2794419 Z M53.561965,51.0357489 C53.9524893,51.4262732 54.5856543,51.4262732 54.9761786,51.0357489 C55.3667029,50.6452246 55.3667029,50.0120596 54.9761786,49.6215353 L54.5830833,49.2284401 C54.1925591,48.8379158 53.5593941,48.8379158 53.1688698,49.2284401 C52.7783455,49.6189644 52.7783455,50.2521294 53.1688698,50.6426537 L53.561965,51.0357489 Z M65.561965,57.0357489 C65.9524893,57.4262732 66.5856543,57.4262732 66.9761786,57.0357489 C67.3667029,56.6452246 67.3667029,56.0120596 66.9761786,55.6215353 L66.5830833,55.2284401 C66.1925591,54.8379158 65.5593941,54.8379158 65.1688698,55.2284401 C64.7783455,55.6189644 64.7783455,56.2521294 65.1688698,56.6426537 L65.561965,57.0357489 Z M23.7396763,58.7700803 C23.7396763,59.3200132 24.1794491,59.8423748 24.7188022,59.9287197 C24.7188022,59.9287197 33.6813611,61.6322538 40.1279293,59.7658227 C46.5744974,57.8993916 50.1068116,45.9017858 59.4885603,41.262605 C61.3524149,40.0239956 58.3635603,37.8086266 58.3635603,37.8086266 C58.3635603,37.8086266 58.6964728,35.1774552 55.6005256,33.0128349 C52.5045783,30.8482147 48.2314452,29.1333705 48.2314452,29.1333705 C48.2314452,29.1333705 46.8590427,27.6640299 46.8590437,30.5181198 C46.8590447,33.3722098 44.7323005,38.6523441 37.375279,36.1674107 C35.7751461,35.5312498 34.8063616,36.3858981 34.8063616,36.3858981 L36.8546317,40.099396 L33.6813617,54.2444186 L32.8500367,51.4447534 L25.5395904,54.9554515 C24.5455253,55.4328318 23.7396763,56.7152327 23.7396763,57.815944 L23.7396763,58.7700803 Z" sketch:type="MSShapeGroup" fill="#FFFFFF"></path></g></g></g><g id="SvgjsG4745" featurekey="nameFeature-0" transform="matrix(2.285714428070344,0,0,2.285714428070344,128.81147745087154,-18.057143608071065)" fill="#393E46"><path d="M17.92 11.399999999999999 l3.8799 0 l0 1 c-0.26668 -0.05332 -0.52 -0.05332 -0.76 0 c-0.21332 0.05332 -0.40664 0.16664 -0.57996 0.33996 s-0.3 0.44664 -0.38 0.81996 c0 0.02668 -0.06668 0.42668 -0.2 1.2 s-0.31332 1.78 -0.54 3.02 s-0.48668 2.6533 -0.78 4.24 s-0.58664 3.1934 -0.87996 4.82 c-0.69332 3.8667 -1.48 8.24 -2.36 13.12 l-2.08 0 c-0.21332 -1.4133 -0.45332 -2.9066 -0.72 -4.48 c-0.21332 -1.36 -0.45332 -2.8733 -0.72 -4.54 s-0.53336 -3.38 -0.80004 -5.14 c-0.32 1.76 -0.63332 3.4733 -0.94 5.14 s-0.58 3.18 -0.82 4.54 c-0.29332 1.5733 -0.56 3.0666 -0.8 4.48 l-2.08 0 l-2.08 -13.12 c-0.26668 -1.6267 -0.52 -3.2334 -0.76 -4.82 s-0.46 -3 -0.66 -4.24 s-0.36 -2.2467 -0.48 -3.02 s-0.18 -1.1733 -0.18 -1.2 c-0.08 -0.37332 -0.20668 -0.64664 -0.38 -0.81996 s-0.36664 -0.28664 -0.57996 -0.33996 c-0.24 -0.05332 -0.48 -0.05332 -0.72 0 l0 -1 l5.92 0 l0 1 c-0.24 -0.05332 -0.45332 -0.05332 -0.64 0 c-0.16 0.05332 -0.29332 0.16664 -0.4 0.33996 s-0.12 0.44664 -0.04 0.81996 c0 0.02668 0.04668 0.38 0.14 1.06 s0.22664 1.58 0.39996 2.7 s0.36664 2.3933 0.57996 3.82 s0.44 2.8867 0.68 4.38 s0.47332 2.9733 0.7 4.44 s0.44668 2.7867 0.66 3.96 c0.29332 -1.5467 0.62 -3.3067 0.98 -5.28 s0.7 -3.92 1.02 -5.84 c-0.21332 -1.2533 -0.40664 -2.4333 -0.57996 -3.54 s-0.32664 -2.08 -0.45996 -2.92 s-0.24 -1.5067 -0.32 -2 s-0.12 -0.75332 -0.12 -0.78 c-0.05332 -0.37332 -0.17332 -0.64664 -0.36 -0.81996 s-0.37336 -0.28664 -0.56004 -0.33996 c-0.24 -0.05332 -0.48 -0.05332 -0.72 0 l0 -1 l5.88 0 l0 1 c-0.26668 -0.05332 -0.48 -0.05332 -0.64 0 s-0.28668 0.16664 -0.38 0.33996 s-0.11332 0.44664 -0.06 0.81996 c0 0.02668 0.05332 0.38 0.16 1.06 s0.24668 1.58 0.42 2.7 s0.36664 2.3933 0.57996 3.82 s0.43332 2.8867 0.66 4.38 s0.45336 2.9733 0.68004 4.44 s0.44668 2.7867 0.66 3.96 c0.24 -1.1733 0.49332 -2.4933 0.76 -3.96 s0.53336 -2.9467 0.80004 -4.44 s0.52 -2.9533 0.76 -4.38 s0.45332 -2.7 0.64 -3.82 s0.34 -2.02 0.46 -2.7 s0.18 -1.0333 0.18 -1.06 c0.05332 -0.37332 0.03332 -0.64664 -0.06 -0.81996 s-0.20664 -0.28664 -0.33996 -0.33996 c-0.16 -0.05332 -0.37332 -0.05332 -0.64 0 l0 -1 z M26.96 20.16 c0.61332 0 1.2401 0.10684 1.8801 0.32016 s1.2133 0.54664 1.72 0.99996 s0.91336 1.0266 1.22 1.72 s0.46 1.52 0.46 2.48 l0 4.04 l0 0.12 l0 0.92 l-7.96 0 l0 4.12 c0 1.6533 0.28668 2.8333 0.86 3.54 s1.2866 1.0467 2.14 1.02 c0.50668 -0.02668 1.0067 -0.11336 1.5 -0.26004 s0.92 -0.39336 1.28 -0.74004 s0.66 -0.84 0.9 -1.48 s0.36 -1.48 0.36 -2.52 l0.92 0 l0 0.56 c0 0.72 -0.08 1.4067 -0.24 2.06 s-0.44 1.22 -0.84 1.7 s-0.91332 0.86 -1.54 1.14 s-1.3934 0.43332 -2.3 0.46 c-0.64 0 -1.2933 -0.12 -1.96 -0.36 s-1.2667 -0.6 -1.8 -1.08 s-0.97332 -1.0467 -1.32 -1.7 s-0.52 -1.3933 -0.52 -2.22 l0 -0.94 l-0.02 -1.54 l-0.02 -1.9 l-0.02 -1.98 l-0.02 -1.74 l0 -1.18 c0 -0.96 0.16668 -1.7933 0.5 -2.5 s0.74664 -1.28 1.24 -1.72 s1.0533 -0.77332 1.68 -1 s1.26 -0.34 1.9 -0.34 z M29.560000000000002 29.72 l0 -3.16 c0 -1.0133 -0.06668 -1.86 -0.2 -2.54 s-0.31332 -1.2267 -0.54 -1.64 s-0.5 -0.7 -0.82 -0.86 s-0.68 -0.24 -1.08 -0.24 c-0.85332 0 -1.5 0.37332 -1.94 1.12 s-0.66 2.1334 -0.66 4.16 l0 3.16 l5.24 0 z M48.4 38.28 c0 0.21332 -0.05332 0.4332 -0.16 0.65988 s-0.26 0.44 -0.46 0.64 s-0.45332 0.38 -0.76 0.54 s-0.66 0.24 -1.06 0.24 c-0.64 0 -1.2133 -0.14668 -1.72 -0.44 s-0.85336 -0.68 -1.04 -1.16 c-0.16 -0.26668 -0.28 -0.57336 -0.36 -0.92004 c-0.34668 0.72 -0.87336 1.32 -1.58 1.8 s-1.4867 0.72 -2.34 0.72 c-1.0667 0 -2 -0.38668 -2.8 -1.16 c-0.45332 -0.4 -0.82664 -0.92 -1.12 -1.56 s-0.46664 -1.3733 -0.51996 -2.2 c-0.02668 -0.08 -0.04 -0.24 -0.04 -0.48 l0 -0.04 c0.02668 -0.45332 0.10668 -0.92664 0.24 -1.42 s0.34 -0.98664 0.62 -1.48 s0.61332 -0.96 1 -1.4 s0.80668 -0.82 1.26 -1.14 c0.10668 -0.05332 0.19336 -0.11332 0.26004 -0.18 s0.16668 -0.14 0.3 -0.22 l0.12 -0.06 l0.12 -0.06 c0.48 -0.29332 0.9 -0.56 1.26 -0.8 s0.68668 -0.46668 0.98 -0.68 c0.16 -0.10668 0.32 -0.22668 0.48 -0.36 s0.33332 -0.26664 0.52 -0.39996 c0.24 -0.16 0.46668 -0.34668 0.68 -0.56 s0.37332 -0.46664 0.48 -0.75996 c0.16 -0.26668 0.24 -0.58668 0.24 -0.96 s-0.04 -0.70664 -0.12 -0.99996 c-0.10668 -0.58668 -0.38 -1.0934 -0.82 -1.52 s-0.92668 -0.70668 -1.46 -0.84 c-0.24 -0.08 -0.46668 -0.12 -0.68 -0.12 c-0.74668 0 -1.3867 0.13332 -1.92 0.4 c-0.34668 0.16 -0.6 0.34 -0.76 0.54 s-0.24668 0.38668 -0.26 0.56 s0.02 0.31332 0.1 0.42 s0.18668 0.18668 0.32 0.24 c0.05332 0.02668 0.08664 0.04 0.09996 0.04 s0.04664 0.01332 0.09996 0.04 c0.34668 0.13332 0.63336 0.36664 0.86004 0.69996 s0.34 0.7 0.34 1.1 c0 0.50668 -0.18 0.94 -0.54 1.3 s-0.79332 0.54 -1.3 0.54 c-0.53332 0 -0.98664 -0.18 -1.36 -0.54 s-0.56 -0.79332 -0.56 -1.3 c0 -0.45332 0.06 -0.92664 0.18 -1.42 s0.3 -0.94 0.54 -1.34 c0.50668 -0.74668 1.1134 -1.2867 1.82 -1.62 s1.4867 -0.5 2.34 -0.5 c0.64 0 1.2733 0.12 1.9 0.36 s1.1867 0.58 1.68 1.02 s0.90664 0.96668 1.24 1.58 s0.5 1.32 0.5 2.12 l0 11.76 c0 0.48 0.0066796 0.79332 0.02 0.94 s0.02 0.24668 0.02 0.3 l0 0 c0 0.34668 0.10668 0.62668 0.32 0.84 s0.46664 0.32 0.75996 0.32 c0.34668 0 0.62668 -0.1 0.84 -0.3 s0.33332 -0.46 0.36 -0.78 l0.84 0 z M42.12 37.2799 c0.21332 -0.37332 0.33988 -0.77324 0.37988 -1.1999 s0.06 -0.82668 0.06 -1.2 l0 -7.4 c-0.10668 0.10668 -0.22 0.20668 -0.34 0.3 s-0.24668 0.20664 -0.38 0.33996 c-0.77332 0.56 -1.4333 1.0733 -1.98 1.54 s-1.0067 0.94668 -1.38 1.44 s-0.66664 1.02 -0.87996 1.58 s-0.34664 1.2 -0.39996 1.92 l0 0.6 c0.02668 1.0133 0.3 1.8066 0.82 2.38 s1.26 0.86 2.22 0.86 c0.42668 0 0.81336 -0.10668 1.16 -0.32 c0.34668 -0.24 0.58668 -0.52 0.72 -0.84 z M59.400000000000006 23.32 c0 0.05332 0.013281 0.15984 0.039961 0.31984 s0.02668 0.29332 0 0.4 c-0.02668 0.56 -0.22 1.02 -0.58 1.38 s-0.79332 0.54 -1.3 0.54 c-0.53332 0 -0.98 -0.18668 -1.34 -0.56 s-0.54 -0.82664 -0.54 -1.36 c0 -0.66668 0.25332 -1.1734 0.76 -1.52 c0.05332 -0.02668 0.08664 -0.04668 0.09996 -0.06 l0.06 -0.06 c0.18668 -0.13332 0.30668 -0.32664 0.36 -0.57996 s-0.10668 -0.47332 -0.48 -0.66 c-0.24 -0.13332 -0.48 -0.2 -0.72 -0.2 c-0.8 -0.05332 -1.5067 0.18668 -2.12 0.72 s-1.0266 1.4666 -1.24 2.8 l0 13.36 c0 0.37332 0.05332 0.64664 0.16 0.81996 s0.21336 0.27332 0.32004 0.3 c0.16 0.08 0.33332 0.08 0.52 0 l0 1.04 l-4.84 0 l0 -1.04 c0.21332 0.08 0.37332 0.08 0.48 0 c0.13332 -0.02668 0.26664 -0.12668 0.39996 -0.3 s0.2 -0.44664 0.2 -0.81996 l0 -15.24 c0 -0.37332 -0.06668 -0.64664 -0.2 -0.81996 s-0.26664 -0.28664 -0.39996 -0.33996 c-0.10668 -0.05332 -0.26668 -0.05332 -0.48 0 l0 -1 l3.84 0 l0 1.64 c0.18668 -0.29332 0.37336 -0.56664 0.56004 -0.81996 s0.40668 -0.46664 0.66 -0.63996 s0.54664 -0.31332 0.87996 -0.42 s0.75332 -0.16 1.26 -0.16 c0.77332 0 1.4933 0.28 2.16 0.84 s1.16 1.3733 1.48 2.44 z M73 37.88 c0.05332 0.37332 0.16688 0.64 0.3402 0.8 s0.36664 0.26668 0.57996 0.32 s0.45332 0.05332 0.72 0 l0 1 l-5.88 0 l0 -1 c0.24 0.05332 0.45332 0.05332 0.64 0 c0.13332 -0.05332 0.25332 -0.16 0.36 -0.32 s0.13336 -0.42668 0.08004 -0.8 c0 -0.05332 -0.07332 -0.52664 -0.22 -1.42 s-0.32668 -2.0733 -0.54 -3.54 l-5.12 0 c-0.26668 1.4667 -0.47336 2.6467 -0.62004 3.54 s-0.22 1.3666 -0.22 1.42 c-0.08 0.37332 -0.07332 0.64 0.02 0.8 s0.20664 0.26668 0.33996 0.32 c0.16 0.05332 0.37332 0.05332 0.64 0 l0 1 l-3.84 0 l0 -1 c0.24 0.05332 0.48 0.05332 0.72 0 c0.21332 -0.05332 0.40664 -0.16 0.57996 -0.32 s0.3 -0.42668 0.38 -0.8 c0 -0.02668 0.06668 -0.42 0.2 -1.18 s0.31332 -1.76 0.54 -3 s0.48668 -2.6467 0.78 -4.22 s0.58664 -3.1866 0.87996 -4.84 l2.4 -13.12 l2.04 0 c0.77332 4.88 1.4666 9.24 2.08 13.08 c0.26668 1.6533 0.52 3.2666 0.76 4.84 s0.46 2.98 0.66 4.22 s0.36668 2.2467 0.5 3.02 s0.2 1.1733 0.2 1.2 z M64.1204 31.880000000000003 l4.84 0 c-0.16 -1.0933 -0.34 -2.2666 -0.54 -3.52 s-0.4 -2.5133 -0.6 -3.78 s-0.4 -2.5 -0.6 -3.7 s-0.38 -2.3067 -0.54 -3.32 c-0.21332 1.0133 -0.42664 2.12 -0.63996 3.32 s-0.43332 2.4333 -0.66 3.7 s-0.44668 2.5267 -0.66 3.78 s-0.41332 2.4266 -0.6 3.52 z M88.04 17.24 c0.02668 0.64 0.039961 1.3667 0.039961 2.18 s-0.01332 1.5266 -0.04 2.14 c0 0.72 -0.12668 1.4333 -0.38 2.14 s-0.63332 1.34 -1.14 1.9 s-1.14 1 -1.9 1.32 s-1.6333 0.48 -2.62 0.48 l-2.04 0 l0 10.44 c0 0.37332 0.05332 0.64664 0.16 0.81996 s0.21336 0.27332 0.32004 0.3 c0.16 0.08 0.33332 0.08 0.52 0 l0 1.04 l-4.84 0 l0 -1.04 c0.21332 0.08 0.37332 0.08 0.48 0 c0.13332 -0.02668 0.26664 -0.12668 0.39996 -0.3 s0.2 -0.44664 0.2 -0.81996 l0 -24.28 c0 -0.4 -0.06668 -0.68668 -0.2 -0.86 s-0.26664 -0.28664 -0.39996 -0.33996 c-0.10668 -0.05332 -0.26668 -0.05332 -0.48 0 l0 -0.96 l5.88 0 c0.98668 0 1.86 0.16 2.62 0.48 s1.3933 0.76 1.9 1.32 s0.88668 1.1867 1.14 1.88 s0.38 1.4133 0.38 2.16 z M85.2 16.36 c0 -0.69332 -0.11332 -1.2934 -0.34 -1.8001 s-0.49336 -0.90668 -0.80004 -1.2 s-0.62668 -0.52664 -0.96 -0.69996 s-0.62 -0.26 -0.86 -0.26 l-2.28 0 l0 13.92 l2.28 0 c0.24 0 0.52668 -0.06668 0.86 -0.2 s0.65332 -0.36664 0.96 -0.69996 s0.57336 -0.74 0.80004 -1.22 s0.34 -1.08 0.34 -1.8 l0 -6.04 z M104.20000000000002 38.28 c0 0.21332 -0.05332 0.4332 -0.16 0.65988 s-0.26 0.44 -0.46 0.64 s-0.45332 0.38 -0.76 0.54 s-0.66 0.24 -1.06 0.24 c-0.64 0 -1.2133 -0.14668 -1.72 -0.44 s-0.85336 -0.68 -1.04 -1.16 c-0.16 -0.26668 -0.28 -0.57336 -0.36 -0.92004 c-0.34668 0.72 -0.87336 1.32 -1.58 1.8 s-1.4867 0.72 -2.34 0.72 c-1.0667 0 -2 -0.38668 -2.8 -1.16 c-0.45332 -0.4 -0.82664 -0.92 -1.12 -1.56 s-0.46664 -1.3733 -0.51996 -2.2 c-0.02668 -0.08 -0.04 -0.24 -0.04 -0.48 l0 -0.04 c0.02668 -0.45332 0.10668 -0.92664 0.24 -1.42 s0.34 -0.98664 0.62 -1.48 s0.61332 -0.96 1 -1.4 s0.80668 -0.82 1.26 -1.14 c0.10668 -0.05332 0.19336 -0.11332 0.26004 -0.18 s0.16668 -0.14 0.3 -0.22 l0.12 -0.06 l0.12 -0.06 c0.48 -0.29332 0.9 -0.56 1.26 -0.8 s0.68668 -0.46668 0.98 -0.68 c0.16 -0.10668 0.32 -0.22668 0.48 -0.36 s0.33332 -0.26664 0.52 -0.39996 c0.24 -0.16 0.46668 -0.34668 0.68 -0.56 s0.37332 -0.46664 0.48 -0.75996 c0.16 -0.26668 0.24 -0.58668 0.24 -0.96 s-0.04 -0.70664 -0.12 -0.99996 c-0.10668 -0.58668 -0.38 -1.0934 -0.82 -1.52 s-0.92668 -0.70668 -1.46 -0.84 c-0.24 -0.08 -0.46668 -0.12 -0.68 -0.12 c-0.74668 0 -1.3867 0.13332 -1.92 0.4 c-0.34668 0.16 -0.6 0.34 -0.76 0.54 s-0.24668 0.38668 -0.26 0.56 s0.02 0.31332 0.1 0.42 s0.18668 0.18668 0.32 0.24 c0.05332 0.02668 0.08664 0.04 0.09996 0.04 s0.04664 0.01332 0.09996 0.04 c0.34668 0.13332 0.63336 0.36664 0.86004 0.69996 s0.34 0.7 0.34 1.1 c0 0.50668 -0.18 0.94 -0.54 1.3 s-0.79332 0.54 -1.3 0.54 c-0.53332 0 -0.98664 -0.18 -1.36 -0.54 s-0.56 -0.79332 -0.56 -1.3 c0 -0.45332 0.06 -0.92664 0.18 -1.42 s0.3 -0.94 0.54 -1.34 c0.50668 -0.74668 1.1134 -1.2867 1.82 -1.62 s1.4867 -0.5 2.34 -0.5 c0.64 0 1.2733 0.12 1.9 0.36 s1.1867 0.58 1.68 1.02 s0.90664 0.96668 1.24 1.58 s0.5 1.32 0.5 2.12 l0 11.76 c0 0.48 0.0066796 0.79332 0.02 0.94 s0.02 0.24668 0.02 0.3 l0 0 c0 0.34668 0.10668 0.62668 0.32 0.84 s0.46664 0.32 0.75996 0.32 c0.34668 0 0.62668 -0.1 0.84 -0.3 s0.33332 -0.46 0.36 -0.78 l0.84 0 z M97.92000000000002 37.2799 c0.21332 -0.37332 0.33988 -0.77324 0.37988 -1.1999 s0.06 -0.82668 0.06 -1.2 l0 -7.4 c-0.10668 0.10668 -0.22 0.20668 -0.34 0.3 s-0.24668 0.20664 -0.38 0.33996 c-0.77332 0.56 -1.4333 1.0733 -1.98 1.54 s-1.0067 0.94668 -1.38 1.44 s-0.66664 1.02 -0.87996 1.58 s-0.34664 1.2 -0.39996 1.92 l0 0.6 c0.02668 1.0133 0.3 1.8066 0.82 2.38 s1.26 0.86 2.22 0.86 c0.42668 0 0.81336 -0.10668 1.16 -0.32 c0.34668 -0.24 0.58668 -0.52 0.72 -0.84 z M108.88000000000001 16.08 c0 0.50668 -0.17332 0.92668 -0.52 1.26 s-0.76 0.5 -1.24 0.5 s-0.88 -0.16668 -1.2 -0.5 s-0.48 -0.75332 -0.48 -1.26 c0 -0.48 0.16 -0.88 0.48 -1.2 s0.72 -0.48 1.2 -0.48 s0.89332 0.16 1.24 0.48 s0.52 0.72 0.52 1.2 z M108.52000000000001 37.84 c0 0.37332 0.05332 0.6466 0.16 0.81992 s0.22668 0.27332 0.36 0.3 c0.13332 0.08 0.29332 0.08 0.48 0 l0 1.04 l-4.8 0 l0 -1.04 c0.18668 0.08 0.36 0.08 0.52 0 c0.13332 -0.02668 0.25332 -0.12668 0.36 -0.3 s0.16 -0.44664 0.16 -0.81996 l0 -15.24 c0 -0.34668 -0.05332 -0.60668 -0.16 -0.78 s-0.22668 -0.28664 -0.36 -0.33996 c-0.16 -0.05332 -0.33332 -0.05332 -0.52 0 l0 -1 l3.8 0 l0 17.36 z M122.96000000000002 23.32 c0 0.05332 0.013281 0.15984 0.039961 0.31984 s0.02668 0.29332 0 0.4 c-0.02668 0.56 -0.22 1.02 -0.58 1.38 s-0.79332 0.54 -1.3 0.54 c-0.53332 0 -0.98 -0.18668 -1.34 -0.56 s-0.54 -0.82664 -0.54 -1.36 c0 -0.66668 0.25332 -1.1734 0.76 -1.52 c0.05332 -0.02668 0.08664 -0.04668 0.09996 -0.06 l0.06 -0.06 c0.18668 -0.13332 0.30668 -0.32664 0.36 -0.57996 s-0.10668 -0.47332 -0.48 -0.66 c-0.24 -0.13332 -0.48 -0.2 -0.72 -0.2 c-0.8 -0.05332 -1.5067 0.18668 -2.12 0.72 s-1.0266 1.4666 -1.24 2.8 l0 13.36 c0 0.37332 0.05332 0.64664 0.16 0.81996 s0.21336 0.27332 0.32004 0.3 c0.16 0.08 0.33332 0.08 0.52 0 l0 1.04 l-4.84 0 l0 -1.04 c0.21332 0.08 0.37332 0.08 0.48 0 c0.13332 -0.02668 0.26664 -0.12668 0.39996 -0.3 s0.2 -0.44664 0.2 -0.81996 l0 -15.24 c0 -0.37332 -0.06668 -0.64664 -0.2 -0.81996 s-0.26664 -0.28664 -0.39996 -0.33996 c-0.10668 -0.05332 -0.26668 -0.05332 -0.48 0 l0 -1 l3.84 0 l0 1.64 c0.18668 -0.29332 0.37336 -0.56664 0.56004 -0.81996 s0.40668 -0.46664 0.66 -0.63996 s0.54664 -0.31332 0.87996 -0.42 s0.75332 -0.16 1.26 -0.16 c0.77332 0 1.4933 0.28 2.16 0.84 s1.16 1.3733 1.48 2.44 z" fill="#393E46"></path></g></svg>