<?xml version="1.0" encoding="utf-8"?>
<!-- Generator: Adobe Illustrator 24.1.2, SVG Export Plug-In . SVG Version: 6.00 Build 0)  -->
<svg version="1.1" id="Capa_1" xmlns="http://www.w3.org/2000/svg" xmlns:xlink="http://www.w3.org/1999/xlink" x="0px" y="0px"
	 viewBox="0 0 200 177.1" style="enable-background:new 0 0 200 177.1;" xml:space="preserve">
<style type="text/css">
	.st0{fill:#FF903C;}
</style>
<g id="SvgjsG2859" transform="matrix(1.8223233990741496,0,0,1.8223233990741496,7.243736206480953,-12.938496828587672)">
	<g>
		<path class="st0" d="M94.8,32.9c0-11.7-9.5-21.3-21.3-21.3c-6.5,0-12.3,2.9-16.2,7.5c-1.7-0.2-3.3-0.4-5.1-0.4
			c-4.8,0-9.3,1-13.5,2.8c-3.1-1.8-6.7-2.8-10.5-2.8C16.5,18.8,7,28.3,7,40.1c0,8.5,5,15.8,12.2,19.2c-1.9,2.5-3.1,5.6-3.1,9
			c0,8.3,6.7,15,15,15c2,0,3.8-0.4,5.5-1.1c2.9,1.5,6,2.6,9.3,3.3c3.6,6.7,10.6,11.2,18.8,11.2c11.7,0,21.3-9.5,21.3-21.3
			c0-3.7-0.9-7.1-2.6-10.1C85,61.3,86,57,86,52.4c0-0.7,0-1.5-0.1-2.2C91.2,46.4,94.8,40.1,94.8,32.9z M49.3,64.3
			c1.9-5-0.8-10.8-6.1-12.7l0,0c3.2,1.2,10.8-0.5,11.9-3.6c-1.2,3.2,6.5,10.8,9.9,12.1C59.8,58.1,51.1,59.4,49.3,64.3z"/>
	</g>
</g>
</svg>
