<?xml version="1.0" encoding="utf-8"?>
<!-- Generator: Adobe Illustrator 24.1.2, SVG Export Plug-In . SVG Version: 6.00 Build 0)  -->
<svg version="1.1" xmlns="http://www.w3.org/2000/svg" xmlns:xlink="http://www.w3.org/1999/xlink" x="0px" y="0px"
	 viewBox="0 0 500 500" style="enable-background:new 0 0 500 500;" xml:space="preserve">
<style type="text/css">
	.st0{fill:#FFECD4;}
	.st1{fill:#FFD6A9;}
	.st2{fill:#FFB872;}
	.st3{fill:none;stroke:#000000;stroke-linejoin:round;stroke-miterlimit:10;}
	.st4{fill:none;stroke:#000000;stroke-miterlimit:10;}
	.st5{fill:#BA6F4C;}
	.st6{fill:none;stroke:#000000;stroke-linecap:round;stroke-miterlimit:10;}
	.st7{fill:#FD7014;}
	.st8{fill:#FFFFFF;}
	.st9{fill:none;stroke:#000000;stroke-linecap:round;stroke-linejoin:round;stroke-miterlimit:10;}
	.st10{fill:#7E9E6E;}
	.st11{font-family:'HelveticaNowText-Regular';}
	.st12{font-size:18.1198px;}
</style>
<g id="BACKGROUND">
	
		<ellipse transform="matrix(0.9475 -0.3196 0.3196 0.9475 -67.2231 78.8269)" class="st0" cx="206.5" cy="244.2" rx="142.4" ry="160.2"/>
</g>
<g id="OBJECTS">
	<ellipse class="st1" cx="349.6" cy="437.8" rx="60.9" ry="11.3"/>
	<g>
		<path class="st1" d="M287.5,313.9H58.9c-5.6,0-10.2-4.5-10.2-10.2V160c0-5.6,4.5-10.2,10.2-10.2h228.6c5.6,0,10.2,4.5,10.2,10.2
			v143.7C297.7,309.3,293.1,313.9,287.5,313.9z"/>
		<path class="st2" d="M287.5,149.9H58.9c-5.6,0-10.2,4.5-10.2,10.2v10h248.9v-10C297.7,154.4,293.1,149.9,287.5,149.9z"/>
		<g>
			<circle class="st3" cx="256.4" cy="160.2" r="3.6"/>
			<circle class="st3" cx="269.8" cy="160.2" r="3.6"/>
			<circle class="st3" cx="283.3" cy="160.2" r="3.6"/>
		</g>
		<g>
			<g>
				<path class="st2" d="M150.8,200.1c-2.8,0-5.6-1.9-7.8-3.7l-2.7-2.2c-1.6-1.4-3.6-2.1-5.6-2.1h-22.6c-2.1,0-3.7,1.7-3.7,3.7v4.3
					v79c0,2.8,2.2,5,5,5h114.2c2.8,0,5-2.2,5-5v-74c0-2.8-2.2-5-5-5H150.8z"/>
				<path class="st4" d="M223.6,216.1h-32.3c-1.4,0-2.6-1.2-2.6-2.6l0,0c0-1.4,1.2-2.6,2.6-2.6h32.3c1.4,0,2.6,1.2,2.6,2.6l0,0
					C226.2,214.9,225,216.1,223.6,216.1z"/>
			</g>
		</g>
	</g>
	<g>
		<path class="st5" d="M416.1,193.9c0,0,5.7,13.5,6.5,17.4c2.3,12,13,44.9,16.7,49.1c0,0,6.8,0.7,10.2-1.2c0,0-8.5-53.9-12.1-61.2
			c-3.6-7.3-6.1-19.2-6.1-19.2L416.1,193.9z"/>
		<g>
			<path class="st5" d="M448.6,257.3c-3.8-3.1-11.4-1.3-12.7,3.4c-1.1,3.8-1.1,6-1.2,6.6c-0.2,1.3-4.8,9.2-4,10.8
				c0.6,1.2,3.9-2.5,5.6-5.1c0.3-0.5,1.2-0.3,1.2,0.3c0.3,3.5,1,10.6,1.6,11.4c0.8,1.2,3.8,6.1,4.6,5.6c0.9-0.5-0.1-4-0.9-6.3
				c-0.8-2.3,0.2-7.5,0.2-7.5s3.9,11.8,5.6,13.9c2.5,3.2,3.3-2,3.3-2c1.5,1.6,2.9-2.2,2.7-3.4c-0.5-2.4-4.2-10.9-3.6-10.5
				c0.7,0.3,4.8,9.2,6.7,9.5c1.9,0.3,1-3-0.1-5.1c-1.1-2.1-3.9-8.3-3.9-8.3s-1-5.8-4.5-12.1C449.2,258.5,448.7,257.3,448.6,257.3z"
				/>
			<line class="st6" x1="451.9" y1="288.2" x2="446.8" y2="276.3"/>
		</g>
		<polygon points="413.4,171.4 359.7,169.2 359.7,90 388,86 		"/>
		<path class="st6" d="M387.2,85.3c0,0,10.5,24.7,19.5,57.9"/>
		<path class="st5" d="M292.2,183.7c0,0,12.6,5.6,41.9-16.5l-12.5-13.9L292.2,183.7z"/>
		<path class="st7" d="M384.2,127.9c0.5-0.1,3.8,3,4.4,3.3c5.6,3.4,10.2,3.9,16.5,5.1c12.4,2.4,21.2,22.2,22.5,26.3
			c1.5,4.9,4.1,13.3,5.6,18.2c0,0-2.5,13.6-18.2,13.3l-7.9-16.8c0,0-8.9,20.2-9.5,21.8c-0.5,1.6,5.4,21.2,5.4,21.2
			s-47,18.1-74.4,8.3c0,0,9.3-35.5,6.8-36.6c-2.4-1.1-7.3-5.4-1.3-24.9c0,0-9.9-5.8-12.3-21c0,0,12.9-11.9,21-12.2
			C351.1,133.7,384.2,127.9,384.2,127.9z"/>
		<path class="st8" d="M364.5,141.5c0,0,3.4,9.1,13.8,3.9c8.6-4.2,11.4-11.1,12.1-13.4c-3.6-2-6.2-4.1-6.2-4.1s-14.6,2.5-26.8,4.3
			C356.8,133.6,350.9,146.5,364.5,141.5z"/>
		<path class="st5" d="M383.3,111l0.9,17c0,0-7.9,12-17.4,10.7l-1.8-10.8L383.3,111z"/>
		<path class="st5" d="M367.3,307.5l5.6,71l1.2,46.4c0,0,10.2,6.6,15.5-3.1c0,0,9.5-48.1,8.4-64.7c-1.1-16.6,0.8-36,0.8-36
			L367.3,307.5z"/>
		<path d="M327.2,417.9c0,0-28.9,24.9-26.3,24.9c2.6,0,14.9-1.8,22.9-3.7c8-1.9,11.1-7,11.1-7l0.6,4.9l5.5-0.7
			c0,0,6.2-13.2,1.9-20.5C338.5,408.4,327.2,417.9,327.2,417.9z"/>
		<polygon points="331.2,433.3 335.4,437 337.5,430.8 334.2,430 		"/>
		<path d="M374.1,418.8c0,0-10.8,32.3-7.2,32.8c6.9,0.8,15.4-6.9,18-11.8c2.6-4.9,2.3-12.6,2.3-12.6l-2.5,5.8h5.1
			c0,0,2.7-2.6,0.6-15.3C390.4,417.7,374.1,433.7,374.1,418.8z"/>
		<path class="st5" d="M329.4,305.3l-2.2,112.6c0,0,10,6.8,15.6-2.1c0,0,11.3-45.3,10.9-61c-0.4-15.8,2.2-34.2,2.2-34.2L329.4,305.3
			z"/>
		<path d="M333.4,207.4c0,0,12.6,23.2,66.8,3.2c0,0,21,54.7,4.7,115.8c0,0-46.3,21.6-90.5-4.2C314.5,322.1,321.9,246.3,333.4,207.4z
			"/>
		<path class="st5" d="M334.1,130c0,0-40.1,28.2-43.1,33.2c-3,4.9-9.2,16.1-0.4,20.3s43.6-34.1,52-47.1L334.1,130z"/>
		<path class="st6" d="M298,182.1c0,0,12.5-6.8,27.4-23.8"/>
		<path class="st6" d="M336.2,192.5c0,0,33.2,15.9,53.7-1.6"/>
		<line class="st6" x1="407.1" y1="177.4" x2="400" y2="166.2"/>
		<line class="st6" x1="334.1" y1="167.2" x2="338.2" y2="159.2"/>
		<path class="st5" d="M355.7,121.1c-2.3-0.2-4.4,2.1-5.3,1.9c-0.7-0.2-1.6-3.5-2-4.8c1.3-7.6,0.4-13.5-1.4-11.9
			c-0.1,0.1-0.2,0.3-0.3,0.5c-0.3-2.4-0.9-3.6-1.9-2.8c-0.3,0.2-0.6,1.1-0.9,1.9c-0.3-2.3-1-3.4-1.9-2.6c-0.4,0.4-1.2,2.7-1.5,3.7
			c-0.2-0.2-0.4-0.3-0.8-0.4c-1.3-0.4-4.3,10.7-4.4,11.3c-0.1,0.6-3.3,13-3.3,13c-1.1,4.5,7.9,6.6,10.5,5.6c2.6-1,8.7-7.5,8.7-7.5
			c0,0,0,0,0,0c0.2-0.3,0.5-0.8,0.9-1.4c0.9-1.5,5.5-5.2,5.6-5.5S358,121.3,355.7,121.1z"/>
		<path d="M357.9,121.9c0.1-0.3,0.1-0.6-2.1-0.9c-2.3-0.2-4.4,2.1-5.3,1.9c-0.7-0.2-1.6-3.5-2-4.8c1.3-7.6,0.4-13.5-1.4-11.9
			c-0.1,0.1-0.2,0.3-0.3,0.5c-0.3-2.4-0.9-3.6-1.9-2.8c-0.3,0.2-0.6,1.1-0.9,1.9c-0.1-1.1-0.4-1.9-0.6-2.3
			c-0.3,7.8,0.6,19.5,7.5,25.9c0.3-0.3,0.5-0.5,0.5-0.5c0,0,0,0,0,0c0.2-0.3,0.5-0.8,0.9-1.4C353.1,126,357.8,122.2,357.9,121.9z"/>
		<g>
			<path d="M381.3,114.2l2-3.2L365,127.8l1.4,8.2C374,134.7,377.6,122.5,381.3,114.2z"/>
			<path class="st5" d="M346.3,95.1c0,0-5.4,30.7,12.4,36.9c17.8,6.2,24.1-23.1,24.1-33.4c0-10.3-4.7-15.7-17.4-17
				C346.7,79.8,346.3,95.1,346.3,95.1z"/>
			<path d="M386.8,83.3c-3.6-5.3-9-8.2-22.4-7.9c-10.2,0.2-16.7,7-18.8,10.6c-0.7,1.1-2.5,4.4,0.9,7.9c0,0,0.1-2.5,2.4-5.2
				c0,0,21.3,11.5,29.8,9.8l2,8c0,0,2.9-4.1,5.8-5.4C386.5,101,390.5,88.5,386.8,83.3z"/>
			<path class="st5" d="M390.2,108.7c-1.4,4-4.8,6.5-7.6,5.6c-2.8-0.9-3.9-5-2.6-9c1.4-4,4.8-6.5,7.6-5.6
				C390.5,100.6,391.6,104.6,390.2,108.7z"/>
			<path d="M364,108.3c0,1.1-0.6,1.9-1.2,1.9c-0.7,0-1.2-0.9-1.2-1.9c0-1.1,0.6-1.9,1.2-1.9C363.4,106.4,364,107.3,364,108.3z"/>
			<path d="M349.9,108.3c0,1-0.4,1.8-1,1.8c-0.6,0-1.1-0.8-1.2-1.8c0-1,0.4-1.8,1-1.8C349.3,106.5,349.8,107.3,349.9,108.3z"/>
			<path class="st6" d="M368.5,100.2c0,0-4.9,0.7-4.9-3.9"/>
			<path class="st6" d="M352.2,98.8c0,0-1.5,4.2-5,1.5"/>
			<path d="M363.7,125.3c0,0,2-6.4,6.7-2.3L363.7,125.3z"/>
			<path class="st9" d="M387.6,104.9c0,0-3-3-5.1,2c0,0,1.7,2.1,0.5,3.6c0,0,1.8,0.5,2.8-1"/>
			<path class="st9" d="M386.1,106.7c0,0-0.1-1.1-1.3-2.5"/>
			<path class="st6" d="M351.7,112.2c-0.7,0.7-0.8,1.6-0.6,2.6c0.2,1,1.2,1.6,2.2,1.7"/>
		</g>
		<path class="st8" d="M384.9,114.2c0,1.5-1.2,2.7-2.7,2.7s-2.7-1.2-2.7-2.7c0-1.5,1.2-2.7,2.7-2.7S384.9,112.7,384.9,114.2z"/>
		<path class="st6" d="M339,134.6c0,0,1.1,2.3,3.6,1.8"/>
		<path class="st6" d="M340.6,107c0,0,1.9,1-1.2,11.9c0,0,1.9,6.9,1.4,8.2c-0.5,1.3-3.2,3.5-3.9,3.6"/>
		<path class="st6" d="M346,123.8c0,0-2.6,3-2.7,7.1"/>
		<path class="st6" d="M344,105.9c0,0,0.6,8.4-0.7,12.9"/>
	</g>
	<g>
		<path class="st1" d="M260.5,455.2c0,3.9-9.1,7-20.2,7c-11.2,0-20.2-3.1-20.2-7c0-3.9,9.1-7,20.2-7
			C251.5,448.2,260.5,451.3,260.5,455.2z"/>
		<g>
			<g>
				<path class="st10" d="M239.8,350.6c0,0-6.1,0.6-4-15.3c2-15,9.6-26,10.1-26c0,0,10.9,15.6,4.1,29.2
					C243.2,352,239.8,350.6,239.8,350.6z"/>
				<path class="st10" d="M289.9,327.7c0,0-14,16.8-48.1,28.6c0,0-0.2-4.5,11.6-15.3C265.2,330.2,291.5,322.5,289.9,327.7z"/>
				<path class="st6" d="M289.9,327.7c0,0-26.7,4.2-48.1,28.6c0,0-2.1,2.7-2.4,8.4"/>
				<path class="st10" d="M189.4,360.2c0,0,14,16.8,48.1,28.6c0,0,0.2-4.5-11.6-15.3C214.1,362.7,187.8,355,189.4,360.2z"/>
				<path class="st6" d="M189.4,360.2c0,0,26.7,4.2,48.1,28.6c0,0,2.1,2.7,2.4,8.4"/>
				<path class="st10" d="M208.3,394.5c0,0,9.3,7.6,29.5,1.5c0,0-0.3-3.9-7.8-7.5C222.4,384.9,206.9,391,208.3,394.5z"/>
				<path class="st6" d="M208.3,394.5c0,0,15.4-9.1,29.5,1.5c0,0,1.4,1.3,2,6"/>
				<path class="st10" d="M286.3,354.5c0,0-9.8,26.3-43.9,38.2c0,0-1.2-14.9,10.6-25.7C264.8,356.1,287.9,349.4,286.3,354.5z"/>
				<path class="st6" d="M286.3,354.5c0,0-24.9,5.3-43.9,38.2c0,0-2.2,3.9-2.4,9.7"/>
				<path class="st10" d="M234,358.6c0,0-2.9,4.7-14.2,3.2c-11.3-1.5-23.5-14.9-31.1-12.4C188.7,349.4,207.5,342.7,234,358.6z"/>
				<path class="st6" d="M241.9,422.6c-2.8-23.4-4-51.5-0.7-81.9c0,0,0.4-8.1,4.8-31.5"/>
				<path class="st6" d="M191,348.8c0,0,19-4.6,43,9.8c5.8,3.5,5.6,10.1,5.2,15.2"/>
			</g>
			<path class="st7" d="M218.2,412.9l6.6,40.5c0,2.5,7,4.5,15.7,4.5s15.7-2,15.7-4.5l6.6-40.5H218.2z"/>
			<ellipse cx="240.4" cy="412.9" rx="22.2" ry="4.5"/>
		</g>
	</g>
	<g>
		<g>
			<path class="st1" d="M264.9,50.7c17,0.5,31.1,14.1,32,31.1c0.6,10-3.3,19.1-9.8,25.5c-1,0.9-1.4,2.3-1.2,3.6l2.4,14.5l-15-8.8
				c-0.9-0.5-1.9-0.7-2.8-0.5c-3.7,0.7-7.6,0.9-11.6,0.3c-14.9-2.3-26.5-14.6-27.8-29.5C229.2,66.9,245.2,50.2,264.9,50.7z"/>
		</g>
		<g>
			<path d="M263,98.5c-0.5,0-0.8-0.1-1.1-0.4c-0.2-0.3-0.4-0.7-0.4-1.2c0-0.5,0.1-0.9,0.4-1.2c0.3-0.3,0.6-0.5,1-0.5
				c0.5,0,0.8,0.1,1.1,0.4c0.2,0.3,0.3,0.7,0.3,1.2c0,0.5-0.1,0.8-0.4,1.2C263.8,98.3,263.5,98.5,263,98.5z M262.8,87.1
				c0-0.9-0.1-1.9-0.1-2.9c0-1-0.1-2-0.1-3c0-1,0-2,0-3V66.1h1.1l0.1,12.1c0,1,0,2,0,3c0,1,0,2-0.1,3c0,1-0.1,2-0.1,2.9H262.8z"/>
		</g>
	</g>
</g>
<g id="TEXTS">
	<text transform="matrix(1 0 0 1 132.677 250.9341)" class="st11 st12">No Data</text>
</g>
</svg>
